<svg width="23" height="26" viewBox="0 0 23 26" fill="none" xmlns="http://www.w3.org/2000/svg">
<path d="M22.5333 12.0004V24.0001C22.5333 24.5305 22.3175 25.0392 21.9333 25.4142C21.5492 25.7893 21.0281 26 20.4848 26H2.04848C1.50519 26 0.984153 25.7893 0.599987 25.4142C0.215822 25.0392 0 24.5305 0 24.0001V12.0004C0 11.47 0.215822 10.9613 0.599987 10.5863C0.984153 10.2112 1.50519 10.0005 2.04848 10.0005H5.12121C5.39286 10.0005 5.65338 10.1058 5.84546 10.2934C6.03754 10.4809 6.14545 10.7352 6.14545 11.0005C6.14545 11.2657 6.03754 11.52 5.84546 11.7075C5.65338 11.8951 5.39286 12.0004 5.12121 12.0004H2.04848V24.0001H20.4848V12.0004H17.4121C17.1405 12.0004 16.88 11.8951 16.6879 11.7075C16.4958 11.52 16.3879 11.2657 16.3879 11.0005C16.3879 10.7352 16.4958 10.4809 16.6879 10.2934C16.88 10.1058 17.1405 10.0005 17.4121 10.0005H20.4848C21.0281 10.0005 21.5492 10.2112 21.9333 10.5863C22.3175 10.9613 22.5333 11.47 22.5333 12.0004ZM6.87011 6.70808L10.2424 3.41443V15.0003C10.2424 15.2655 10.3503 15.5199 10.5424 15.7074C10.7345 15.8949 10.995 16.0003 11.2667 16.0003C11.5383 16.0003 11.7988 15.8949 11.9909 15.7074C12.183 15.5199 12.2909 15.2655 12.2909 15.0003V3.41443L15.6632 6.70808C15.8554 6.89572 16.1161 7.00113 16.3879 7.00113C16.6597 7.00113 16.9203 6.89572 17.1125 6.70808C17.3047 6.52045 17.4127 6.26596 17.4127 6.00061C17.4127 5.73525 17.3047 5.48076 17.1125 5.29313L11.9913 0.293278C11.8962 0.200304 11.7832 0.126547 11.6589 0.0762245C11.5345 0.0259018 11.4013 0 11.2667 0C11.1321 0 10.9988 0.0259018 10.8744 0.0762245C10.7501 0.126547 10.6371 0.200304 10.542 0.293278L5.4208 5.29313C5.22861 5.48076 5.12064 5.73525 5.12064 6.00061C5.12064 6.26596 5.22861 6.52045 5.4208 6.70808C5.61299 6.89572 5.87366 7.00113 6.14545 7.00113C6.41725 7.00113 6.67792 6.89572 6.87011 6.70808Z" fill="black"/>
</svg>
