<svg width="23" height="28" viewBox="0 0 23 28" fill="none" xmlns="http://www.w3.org/2000/svg">
<path d="M20.9333 4.85H1.86667C1.58954 4.85 1.32894 4.9772 1.14049 5.19465C0.952617 5.41143 0.85 5.70138 0.85 6C0.85 6.29862 0.952617 6.58857 1.14049 6.80535C1.32894 7.0228 1.58954 7.15 1.86667 7.15H2.58333V25C2.58333 25.5638 2.77726 26.1081 3.12766 26.5125C3.47865 26.9174 3.95968 27.15 4.46667 27.15H18.3333C18.8403 27.15 19.3214 26.9174 19.6723 26.5125C20.0227 26.1081 20.2167 25.5638 20.2167 25V7.15H20.9333C21.2105 7.15 21.4711 7.0228 21.6595 6.80535C21.8474 6.58857 21.95 6.29862 21.95 6C21.95 5.70138 21.8474 5.41143 21.6595 5.19465C21.4711 4.9772 21.2105 4.85 20.9333 4.85ZM18.1833 24.85H4.61667V7.15H18.1833V24.85ZM6.34049 1.19465C6.15262 1.41143 6.05 1.70138 6.05 2C6.05 2.29862 6.15262 2.58857 6.34049 2.80535C6.52894 3.0228 6.78954 3.15 7.06667 3.15H15.7333C16.0105 3.15 16.2711 3.0228 16.4595 2.80535C16.6474 2.58857 16.75 2.29862 16.75 2C16.75 1.70138 16.6474 1.41143 16.4595 1.19465C16.2711 0.977204 16.0105 0.85 15.7333 0.85H7.06667C6.78954 0.85 6.52894 0.977204 6.34049 1.19465Z" fill="#A60000" stroke="#A60000" stroke-width="0.3"/>
</svg>
