<svg width="28" height="21" viewBox="0 0 28 21" fill="none" xmlns="http://www.w3.org/2000/svg">
<path d="M26.7888 11.6221C27.0201 11.3908 27.15 11.0771 27.15 10.75C27.15 10.4229 27.0201 10.1092 26.7888 9.8779C26.5575 9.64661 26.2438 9.51667 25.9167 9.51667H2.08333C1.75623 9.51667 1.44253 9.64661 1.21124 9.8779C0.97994 10.1092 0.85 10.4229 0.85 10.75C0.85 11.0771 0.97994 11.3908 1.21124 11.6221C1.44253 11.8534 1.75623 11.9833 2.08333 11.9833H25.9167C26.2438 11.9833 26.5575 11.8534 26.7888 11.6221ZM2.08333 3.31667H25.9167C26.2438 3.31667 26.5575 3.18673 26.7888 2.95543C27.0201 2.72414 27.15 2.41043 27.15 2.08333C27.15 1.75623 27.0201 1.44253 26.7888 1.21124C26.5575 0.97994 26.2438 0.85 25.9167 0.85H2.08333C1.75623 0.85 1.44253 0.97994 1.21124 1.21124C0.97994 1.44253 0.85 1.75623 0.85 2.08333C0.85 2.41043 0.97994 2.72414 1.21124 2.95543C1.44253 3.18673 1.75623 3.31667 2.08333 3.31667ZM25.9167 18.1833H2.08333C1.75623 18.1833 1.44253 18.3133 1.21124 18.5446C0.97994 18.7759 0.85 19.0896 0.85 19.4167C0.85 19.7438 0.97994 20.0575 1.21124 20.2888C1.44253 20.5201 1.75623 20.65 2.08333 20.65H25.9167C26.2438 20.65 26.5575 20.5201 26.7888 20.2888C27.0201 20.0575 27.15 19.7438 27.15 19.4167C27.15 19.0896 27.0201 18.7759 26.7888 18.5446C26.5575 18.3133 26.2438 18.1833 25.9167 18.1833Z" fill="#959595" stroke="#959595" stroke-width="0.3"/>
</svg>
