<svg width="26" height="26" viewBox="0 0 26 26" fill="none" xmlns="http://www.w3.org/2000/svg">
<path d="M1.24559 22.8444L1.24558 22.8444C0.992295 23.0977 0.85 23.4412 0.85 23.7994C0.85 24.1576 0.992295 24.5011 1.24558 24.7544C1.49887 25.0077 1.8424 25.15 2.2006 25.15C2.5588 25.15 2.90233 25.0077 3.15562 24.7544L3.04955 24.6484L3.15563 24.7544L13 14.9086L22.8444 24.7544L22.9504 24.6484L22.8444 24.7544C22.9698 24.8798 23.1187 24.9793 23.2825 25.0472C23.4464 25.1151 23.622 25.15 23.7994 25.15C23.9768 25.15 24.1524 25.1151 24.3162 25.0472C24.4801 24.9793 24.629 24.8798 24.7544 24.7544C24.8798 24.629 24.9793 24.4801 25.0472 24.3163C25.1151 24.1524 25.15 23.9768 25.15 23.7994C25.15 23.622 25.1151 23.4464 25.0472 23.2825C24.9793 23.1187 24.8798 22.9698 24.7544 22.8444L24.6484 22.9504L24.7544 22.8444L14.9086 13L24.7544 3.15563L24.6488 3.04996L24.7544 3.15562C25.0077 2.90233 25.15 2.5588 25.15 2.2006C25.15 1.8424 25.0077 1.49887 24.7544 1.24558C24.5011 0.992295 24.1576 0.85 23.7994 0.85C23.4412 0.85 23.0977 0.992295 22.8444 1.24558L22.8444 1.24559L13 11.0914L3.15563 1.24559L3.15562 1.24558C2.90233 0.992295 2.5588 0.85 2.2006 0.85C1.8424 0.85 1.49887 0.992295 1.24558 1.24558C0.992295 1.49887 0.85 1.8424 0.85 2.2006C0.85 2.5588 0.992295 2.90233 1.24558 3.15562L1.24559 3.15563L11.0914 13L1.24559 22.8444Z" fill="#959595" stroke="#959595" stroke-width="0.3"/>
</svg>
