<svg width="28" height="28" viewBox="0 0 28 28" fill="none" xmlns="http://www.w3.org/2000/svg">
<mask id="path-1-outside-1_309_2557" maskUnits="userSpaceOnUse" x="0" y="0" width="28" height="28" fill="black">
<rect fill="white" width="28" height="28"/>
<path d="M26.3906 7.41916L20.5821 1.60939C20.389 1.41619 20.1597 1.26294 19.9073 1.15838C19.6549 1.05382 19.3844 1 19.1112 1C18.838 1 18.5675 1.05382 18.3151 1.15838C18.0627 1.26294 17.8334 1.41619 17.6402 1.60939L1.60972 17.6412C1.41573 17.8336 1.26193 18.0627 1.15726 18.3151C1.05259 18.5675 0.999138 18.8382 1.00001 19.1115V24.9213C1.00001 25.4729 1.21916 26.002 1.60924 26.3921C1.99932 26.7821 2.52838 27.0013 3.08003 27.0013H8.8898C9.16306 27.0022 9.43376 26.9487 9.68617 26.844C9.93858 26.7394 10.1677 26.5856 10.3601 26.3916L26.3906 10.3611C26.5838 10.1679 26.7371 9.93862 26.8416 9.68623C26.9462 9.43384 27 9.16332 27 8.89013C27 8.61693 26.9462 8.34642 26.8416 8.09403C26.7371 7.84164 26.5838 7.61232 26.3906 7.41916ZM8.8898 24.9213H3.08003V19.1115L14.5202 7.67136L20.3299 13.4811L8.8898 24.9213ZM21.8003 12.0095L15.9905 6.20105L19.1105 3.08101L24.9203 8.88948L21.8003 12.0095Z"/>
</mask>
<path d="M26.3906 7.41916L20.5821 1.60939C20.389 1.41619 20.1597 1.26294 19.9073 1.15838C19.6549 1.05382 19.3844 1 19.1112 1C18.838 1 18.5675 1.05382 18.3151 1.15838C18.0627 1.26294 17.8334 1.41619 17.6402 1.60939L1.60972 17.6412C1.41573 17.8336 1.26193 18.0627 1.15726 18.3151C1.05259 18.5675 0.999138 18.8382 1.00001 19.1115V24.9213C1.00001 25.4729 1.21916 26.002 1.60924 26.3921C1.99932 26.7821 2.52838 27.0013 3.08003 27.0013H8.8898C9.16306 27.0022 9.43376 26.9487 9.68617 26.844C9.93858 26.7394 10.1677 26.5856 10.3601 26.3916L26.3906 10.3611C26.5838 10.1679 26.7371 9.93862 26.8416 9.68623C26.9462 9.43384 27 9.16332 27 8.89013C27 8.61693 26.9462 8.34642 26.8416 8.09403C26.7371 7.84164 26.5838 7.61232 26.3906 7.41916ZM8.8898 24.9213H3.08003V19.1115L14.5202 7.67136L20.3299 13.4811L8.8898 24.9213ZM21.8003 12.0095L15.9905 6.20105L19.1105 3.08101L24.9203 8.88948L21.8003 12.0095Z" fill="#959595"/>
<path d="M26.3906 7.41916L20.5821 1.60939C20.389 1.41619 20.1597 1.26294 19.9073 1.15838C19.6549 1.05382 19.3844 1 19.1112 1C18.838 1 18.5675 1.05382 18.3151 1.15838C18.0627 1.26294 17.8334 1.41619 17.6402 1.60939L1.60972 17.6412C1.41573 17.8336 1.26193 18.0627 1.15726 18.3151C1.05259 18.5675 0.999138 18.8382 1.00001 19.1115V24.9213C1.00001 25.4729 1.21916 26.002 1.60924 26.3921C1.99932 26.7821 2.52838 27.0013 3.08003 27.0013H8.8898C9.16306 27.0022 9.43376 26.9487 9.68617 26.844C9.93858 26.7394 10.1677 26.5856 10.3601 26.3916L26.3906 10.3611C26.5838 10.1679 26.7371 9.93862 26.8416 9.68623C26.9462 9.43384 27 9.16332 27 8.89013C27 8.61693 26.9462 8.34642 26.8416 8.09403C26.7371 7.84164 26.5838 7.61232 26.3906 7.41916ZM8.8898 24.9213H3.08003V19.1115L14.5202 7.67136L20.3299 13.4811L8.8898 24.9213ZM21.8003 12.0095L15.9905 6.20105L19.1105 3.08101L24.9203 8.88948L21.8003 12.0095Z" stroke="#959595" stroke-width="0.6" mask="url(#path-1-outside-1_309_2557)"/>
</svg>
