<svg width="27" height="27" viewBox="0 0 27 27" fill="none" xmlns="http://www.w3.org/2000/svg">
<path d="M11.5509 24.422V18.3315H15.4112V24.422C15.4112 25.0135 15.6462 25.5808 16.0644 25.999C16.4827 26.4172 17.0499 26.6522 17.6414 26.6522H23.8819C24.4734 26.6522 25.0407 26.4172 25.4589 25.999C25.8772 25.5808 26.1121 25.0135 26.1121 24.422V12.4025C26.1122 12.0939 26.0481 11.7886 25.9241 11.5059C25.8002 11.2236 25.6191 10.97 25.3922 10.7612C25.392 10.761 25.3917 10.7608 25.3915 10.7606L14.992 0.94863L14.9921 0.948546L14.9878 0.944757L14.9821 0.938306L14.9757 0.93246C14.5652 0.559092 14.0302 0.352197 13.4752 0.352197C12.9203 0.352197 12.3853 0.559091 11.9747 0.93246L11.9746 0.932336L11.9696 0.937366L11.9568 0.950146L1.57063 10.7606C1.57036 10.7608 1.5701 10.761 1.56984 10.7613C1.34301 10.9701 1.16192 11.2236 1.03802 11.5059C0.91398 11.7886 0.849956 12.0938 0.85 12.4025C0.85 12.4025 0.85 12.4025 0.85 12.4025V24.422C0.85 25.0135 1.08496 25.5808 1.5032 25.999C1.92144 26.4172 2.4887 26.6522 3.08018 26.6522H9.32071C9.91219 26.6522 10.4794 26.4172 10.8977 25.999C11.3159 25.5808 11.5509 25.0135 11.5509 24.422ZM23.7332 12.4651L23.732 24.272H17.7914V18.1815C17.7914 17.59 17.5565 17.0228 17.1382 16.6045C16.72 16.1863 16.1527 15.9513 15.5612 15.9513H11.4009C10.8094 15.9513 10.2422 16.1863 9.82391 16.6045C9.40567 17.0228 9.17071 17.59 9.17071 18.1815V24.272H3.23018V12.4677L13.4811 2.78647L23.7332 12.4651Z" fill="#959595" stroke="#959595" stroke-width="0.3"/>
</svg>
